<svg xmlns="http://www.w3.org/2000/svg" width="256" height="256"><path fill-opacity=".016" d="M0 128.004v128.004l128.25-.254 128.25-.254.254-127.75L257.008 0H0v128.004m.485.496c0 70.4.119 99.053.265 63.672.146-35.38.146-92.98 0-128C.604 29.153.485 58.1.485 128.5" fill="#1976D2" fill-rule="evenodd"/><path fill-opacity=".322" d="M106.332 42.912c-8.359 2.116-16.12 9.375-18.355 17.168-6.185 21.567 16.349 40.031 35.882 29.4 2.944-1.602 6.668-4.503 8.275-6.446 3.146-3.803 5.88-11.505 5.844-16.466-.026-3.624-3.066-10.683-6.59-15.304-4.797-6.288-17.061-10.376-25.056-8.352M145 81.118c-3.124 1.24-8.758 6.571-10.443 9.882-3.84 7.549-2.341 16.272 3.861 22.464 3.828 3.822 9.744 6.544 14.198 6.53 7.543-.022 16.137-6.163 18.957-13.546 4.894-12.816-5.022-26.561-19.035-26.385-2.771.035-6.163.51-7.538 1.055M97.5 95.655l-4.275.909c-3.739.8-9.831 7.098-12.278 12.694-1.599 3.658-2.426 7.84-2.734 13.838-.556 10.795 1.267 15.41 9.493 24.036 13.899 14.573 38.297 22.824 58.722 19.858 8.46-1.229 18.572-4.529 18.572-6.062 0-.51-2.137-.936-4.75-.945-13.36-.049-28.181-6.16-33.838-13.952-5.249-7.229-6.516-14.417-5.056-28.679.692-6.758.549-8.749-.835-11.667-3.254-6.858-14.615-11.808-23.021-10.03m79.867 18.263c-4.521 2.757-6.367 5.919-6.367 10.905 0 3.644.569 4.946 3.4 7.777 2.774 2.774 4.164 3.4 7.55 3.4 10.533 0 16.251-9.237 11.024-17.81-1.965-3.224-7.098-6.194-10.692-6.186-.98.002-3.192.863-4.915 1.914m-37.654 11.093c-1.405 1.106-3.309 3.982-4.229 6.392-1.597 4.183-1.584 4.582.296 8.832 8.065 18.233 39.83 20.977 55.809 4.821 4.264-4.31 8.116-10.684 7.083-11.717-.357-.357-3.576.836-7.154 2.652-7.37 3.741-14.521 4.823-19.973 3.024-2.231-.737-5.93-3.582-9.366-7.205-3.124-3.294-6.894-6.623-8.379-7.399-4.017-2.099-11.036-1.799-14.087.6m-70.254 45.056c-.363.586-.409 1.317-.102 1.623.822.823 3.643-.461 3.643-1.659 0-1.357-2.697-1.33-3.541.036m-15.792 3.6c-1.176 1.175-.729 13.871.533 15.133 1.696 1.696 4.539 1.488 5.601-.409.821-1.467.955-1.468 1.511-.019.485 1.263 1.953 1.544 7.149 1.365l6.539-.225.098-4.506.098-4.506 1.2 4.5c.724 2.717 1.775 4.5 2.652 4.5 1.129 0 1.517-1.837 1.742-8.25.243-6.889.037-8.25-1.25-8.25-1.052 0-1.569 1.029-1.63 3.25l-.09 3.25-.943-3.265c-.869-3.011-1.23-3.242-4.659-2.982l-3.718.282-.296 6.732c-.259 5.913-.533 6.733-2.25 6.733-1.753 0-1.954-.721-1.954-7 0-5.556-.31-7-1.5-7-.825 0-1.5.54-1.5 1.2 0 .933-.267.933-1.2 0-1.294-1.294-5.047-1.62-6.133-.533M82 181.583c0 6.436.313 8.473 1.25 8.143.688-.243 1.18-1.293 1.094-2.334-.138-1.664.028-1.621 1.372.358 1.62 2.386 4.709 2.989 5.85 1.143.487-.787.904-.75 1.447.128.929 1.503 2.987.414 2.987-1.58 0-2.167 2.111-1.732 2.71.559.566 2.163 3.33 2.805 3.229.75-.034-.687-.605-4.4-1.27-8.25-1.02-5.912-1.538-7.048-3.333-7.306-1.913-.275-2.202.329-2.877 6-.413 3.468-.948 5.744-1.188 5.056-.707-2.02-3.271-1.432-3.271.75 0 1.1-.45 2-1 2s-1-2.475-1-5.5.45-5.5 1-5.5 1 .675 1 1.5.675 1.5 1.5 1.5c1.57 0 1.921-1.738.893-4.418-.694-1.808-4.46-2.115-6.08-.495-.783.783-1.275.783-1.759 0-1.73-2.798-2.554-.378-2.554 7.496m23.21-.333c.311 8.84 2.033 11.256 2.674 3.75l.384-4.5 1.16 4.482c1.003 3.88 1.537 4.511 3.973 4.698 2.055.158 2.95-.308 3.323-1.732.661-2.529 2.319-2.5 2.986.052.529 2.024 1.792 2.624 2.629 1.25.555-.911-1.801-15.046-2.65-15.894-.331-.332-1.272-.346-2.09-.032-.972.373-1.726 2.678-2.175 6.646-.933 8.243-2.095 8.436-2.001.331.052-4.445-.332-6.745-1.173-7.036-.847-.293-1.283.803-1.353 3.402l-.104 3.833-.996-3.75c-.718-2.703-1.537-3.75-2.937-3.75-1.788 0-1.918.65-1.65 8.25m16.311-7.284c-.31.501.097 1.281.904 1.732.998.559 1.564 2.896 1.771 7.312.39 8.333 2.211 8.045 2.598-.411.205-4.492.73-6.586 1.75-6.977 1.196-.459 1.456.791 1.456 6.993 0 5.594.324 7.445 1.25 7.14.76-.25 1.475-3.125 1.823-7.333.431-5.195.647-5.924.869-2.922.496 6.735 1.498 9.961 3.195 10.288 1.853.357 2.42-1.382 3.431-10.538.469-4.247.343-6.25-.394-6.25-.596 0-1.359 1.688-1.695 3.75a1614.2 1614.2 0 0 1-.864 5.25c-.138.825-.59-.785-1.003-3.577l-.752-5.077-6.888-.145c-3.789-.08-7.142.265-7.451.765M142 181.5c0 6.489.314 8.562 1.25 8.25.858-.286 1.25-2.872 1.25-8.25s-.392-7.964-1.25-8.25c-.936-.312-1.25 1.761-1.25 8.25m4 0c0 8.347.044 8.5 2.443 8.5 1.392 0 3.114-.957 4-2.223l1.557-2.222v2.222c0 2.767 1.646 2.913 2.5.223.794-2.5 2.182-2.577 2.948-.163.767 2.415 7.75 2.822 9.99.582 1.898-1.897 2.165-12.416.362-14.219-.66-.66-2.46-1.2-4-1.2H163l-.107 7.75c-.112 8.066-.469 7.46-2.364-4-.46-2.786-1.104-3.75-2.502-3.75-1.533 0-2.011 1.025-2.572 5.513-.379 3.032-1.03 5.724-1.447 5.982-.417.258-.54-1.467-.273-3.832.557-4.946-1.324-7.663-5.306-7.663-2.381 0-2.429.167-2.429 8.5m28.834-6.034c-.962 2.111-.744 2.964 1.521 5.933 1.455 1.907 2.645 3.948 2.645 4.534 0 1.673-1.716 1.248-2.426-.6-.45-1.174-.953-1.354-1.699-.608-1.471 1.471.664 5.275 2.96 5.275 4.563 0 5.496-5.272 1.665-9.405-2.616-2.823-3.194-4.595-1.5-4.595.55 0 1 .45 1 1s.675 1 1.5 1c1.8 0 1.969-2.131.3-3.8-1.964-1.964-4.766-1.37-5.966 1.266m11.585-1.117c-1.016 2.65.049 14.981 1.331 15.405.844.279 1.25-.75 1.25-3.171 0-4.43 1.757-4.759 2.187-.41.172 1.745.858 3.352 1.525 3.571 1.618.53 1.536-14.924-.084-15.979-1.865-1.214-5.655-.858-6.209.584M199 181.5v8.5l5-.217c5.877-.256 7.239-2.783 1.5-2.783H202v-7c0-5.556-.31-7-1.5-7-1.216 0-1.5 1.611-1.5 8.5m-127.672 0c.005 3.85.185 5.302.402 3.228.216-2.075.213-5.225-.008-7-.221-1.776-.398-.078-.394 3.772M56 181.5c0 3.025.45 5.5 1 5.5s1-.9 1-2c0-1.111.667-2 1.5-2s1.5-.889 1.5-2-.667-2-1.5-2c-.825 0-1.5-.675-1.5-1.5s-.45-1.5-1-1.5-1 2.475-1 5.5m92.381-.504c.155 6.5 2.03 6.514 2.421.017.23-3.807-.039-5.013-1.118-5.013-1.054 0-1.391 1.29-1.303 4.996M166 181.5c0 3.025.45 5.5 1 5.5s1-2.475 1-5.5-.45-5.5-1-5.5-1 2.475-1 5.5m23-3.5c0 1.1.45 2 1 2s1-.9 1-2-.45-2-1-2-1 .9-1 2m-91.805 3.5c.02 1.65.244 2.204.498 1.231.254-.973.237-2.323-.037-3-.274-.677-.481.119-.461 1.769m20.56 0c-.263 1.375-.09 2.5.384 2.5.473 0 .861-1.125.861-2.5s-.173-2.5-.383-2.5c-.211 0-.599 1.125-.862 2.5M157 182c0 1.1.45 2 1 2s1-.9 1-2-.45-2-1-2-1 .9-1 2m26 6.5c0 .825.45 1.5 1 1.5s1-.675 1-1.5-.45-1.5-1-1.5-1 .675-1 1.5m12.192-.425c.197.591.786 1.075 1.308 1.075s1.111-.484 1.308-1.075c.197-.591-.391-1.075-1.308-1.075s-1.505.484-1.308 1.075M161 193.67c-2.475.643-4.725 1.25-5 1.349-.275.099.625.491 2 .87 3.332.92 4.088 5.631 1.058 6.593-1.132.359-2.058 1.103-2.058 1.653s.86.727 1.91.394c1.714-.545 1.87-.167 1.518 3.682l-.392 4.289 1.088-3.5a410.691 410.691 0 0 0 1.451-4.75c.199-.687 1.501-1.25 2.894-1.25 1.392 0 2.531-.499 2.531-1.108 0-.672-.948-.871-2.405-.505-2.329.584-2.371.494-1.346-2.846 1.163-3.791 4.349-5.182 9.123-3.984 1.545.388 2.628.241 2.628-.356 0-1.519-9.857-1.868-15-.531m-115.207 3.036c-4.687 4.913-6.185 11.759-3.222 14.723.865.864 2.259 1.571 3.099 1.571 1.74 0 7.336-5.624 7.319-7.356-.006-.629-1.164.319-2.573 2.106-2.894 3.672-6.883 4.396-7.669 1.391-.718-2.747 1.764-9.107 4.701-12.043 2.267-2.267 2.815-2.415 4.669-1.257 1.739 1.086 2.026 1.083 1.665-.015-.834-2.536-5.187-2.057-7.989.88m11.71 1.701C54.175 202.77 52.875 210 55.418 210c.925 0 3.022-.693 4.661-1.541 1.639-.847 3.379-1.294 3.866-.993.488.302 2.05.106 3.471-.434 1.806-.687 2.584-.652 2.584.115 0 .694.46.765 1.25.194 1.39-1.006 8.894-.988 10.533.025.577.356 2.155.228 3.506-.286 1.49-.566 2.818-.573 3.374-.017.526.526 2.181.563 3.877.087 1.628-.457 4.122-.511 5.542-.121 1.51.414 3.795.169 5.5-.591l2.918-1.299-3.235.553c-2.396.409-3.393.138-3.847-1.045-.549-1.43-.912-1.443-3.466-.122-3.455 1.787-6.365 1.953-5.347.305.494-.799.166-.956-1.034-.496-5.138 1.972-6.571 1.923-6.571-.226V202l-2 2c-2.1 2.1-5.477 2.655-6.462 1.061-.579-.937-1.612-.868-6.788.454-2.203.562-2.75.361-2.75-1.01 0-1.354-.74-1.062-3.535 1.391-3.586 3.15-6.465 4.029-6.465 1.975 0-.621 2.074-3.061 4.609-5.422 2.536-2.361 4.411-4.89 4.168-5.621-.862-2.588-3.626-1.892-6.274 1.579m56.412 1.052c-1.084 2.452-2.409 4.728-2.943 5.059-.535.33-.972 1.197-.972 1.926 0 1.005 1.756 1.259 7.25 1.05 7.485-.285 10.75-1.068 10.75-2.58 0-.479-1.157-.344-2.572.301-2.026.923-2.741.896-3.374-.127-.639-1.034-1.348-.941-3.48.455-4.133 2.709-5.266.565-2.137-4.045 2.923-4.307 3.262-6.498 1.007-6.498-.881 0-2.413 1.935-3.529 4.459m23.74-3.324c-2.153 1.25-5.601 8.359-5.633 11.615-.026 2.674 2.846 3.037 6.272.793 1.222-.801 4.126-1.38 6.452-1.288 2.327.093 4.784-.385 5.461-1.062.974-.974.563-1.097-1.973-.59-2.388.478-3.354.247-3.797-.906-.491-1.28-1.355-1.009-5.019 1.574-6.559 4.623-7.719 2.378-1.848-3.577 4.266-4.327 5.176-6.659 2.868-7.349-.516-.154-1.768.201-2.783.79m24.055.865c.288 1.1.643 2 .79 2 .147 0 .502-.9.79-2 .327-1.25.03-2-.79-2-.82 0-1.117.75-.79 2m38.879 1.077c-1.424 1.692-2.589 3.46-2.589 3.928 0 1.569-3.121 3.995-5.139 3.995-1.541 0-1.851-.456-1.361-2 .364-1.147.18-2-.433-2-.587 0-1.067.46-1.067 1.021 0 .562-1.085 1.516-2.41 2.12-1.888.86-2.885.766-4.601-.436-1.975-1.383-2.623-1.374-6.576.091-4.134 1.532-4.46 1.522-5.701-.176-1.206-1.649-1.43-1.665-2.657-.186-1.806 2.176-1.133 2.61 4.575 2.951 3.497.209 5.243-.157 6.194-1.297.728-.873 1.01-.977.625-.231-.52 1.009-.175 1.191 1.342.709 1.122-.356 2.319-.196 2.66.355.388.628 1.494.67 2.957.114 1.485-.565 2.721-.506 3.389.162.735.735 1.987.725 4.161-.033 1.711-.596 2.9-.743 2.642-.326-.257.417-.068 1.405.421 2.196.757 1.224 1.38 1.24 4.184.104 3.471-1.406 8.61-2.212 12.795-2.005 5.352.263 7.243.024 8.319-1.052.825-.825.31-.957-1.956-.504-2.267.454-3.232.205-3.674-.945-.532-1.386-.912-1.397-3.394-.102-3.895 2.031-5.295 1.832-5.295-.753v-2.222l-1.561 2.228c-1.673 2.389-7.278 5.711-8.155 4.834-.292-.292-.263-1.23.065-2.084.328-.855.599-1.779.603-2.054.018-1.207 3.056-6.241 4.482-7.424 2.769-2.299 1.872 1.016-1.121 4.14-1.478 1.543-2.186 2.805-1.573 2.805 1.614 0 5.26-4.946 5.26-7.135 0-2.806-2.502-2.246-5.411 1.212m-141.392.399c-3.053 3.882-2.757 5.538.422 2.359 1.441-1.44 2.43-3.189 2.198-3.885-.269-.805-1.223-.249-2.62 1.526m56.255.617c-.88 1.701-1.422 3.27-1.205 3.487.217.217 1.143-1.174 2.058-3.093 2.056-4.312 1.344-4.642-.853-.394m21.083.494c-2.42 3.694-1.381 3.906 1.975.403 2.079-2.171 2.433-2.99 1.292-2.99-.865 0-2.335 1.164-3.267 2.587" fill="#1976D2" fill-rule="evenodd"/><path fill-opacity=".195" d="M117.762 75.288c-11.481 6.61-17.57 10.671-17.262 11.514.506 1.381.121 1.224-5-2.045-2.775-1.771-2.741-1.684.443 1.148 11.637 10.352 31.054 6.681 38.204-7.223 2.12-4.124 3.695-13.706 2.242-13.644-.489.02-8.871 4.633-18.627 10.25m28.796 6.204c-9.152 3.26-13.964 10.36-13.33 19.665.707 10.357 7.544 16.979 18.234 17.66 6.357.404 10.622-.938 14.894-4.688 5.162-4.53 7.238-15.378 4.293-22.427-2.578-6.169-11.322-11.783-18.149-11.653-1.1.022-3.774.671-5.942 1.443M94.115 96.723c-1.312.248-4.509 2.576-7.106 5.173-6.049 6.048-8.42 12.676-8.446 23.604-.016 7 .351 8.671 2.934 13.37 6.139 11.169 22.333 22.037 38.965 26.149 7.464 1.846 10.806 2.133 20 1.718 11.32-.512 22.511-3.156 23.294-5.504.294-.884-1.253-1.233-5.463-1.233-11.617 0-24.345-4.995-30.726-12.057-1.829-2.025-4.328-6.328-5.554-9.562-1.978-5.221-2.149-6.946-1.525-15.381.961-12.997.845-14.734-1.222-18.352-2.602-4.554-11.194-8.686-17.695-8.512-2.789.075-6.144.339-7.456.587m82.648 17.842c-7.535 4.088-7.413 15.979.204 19.918 6.989 3.614 14.845.215 17.13-7.413 2.886-9.63-8.068-17.532-17.334-12.505m-37.197 11.511c-8.881 7.798-4.377 19.912 9.869 26.546 4.073 1.897 6.743 2.36 13.633 2.368 15.025.017 25.161-4.754 32.349-15.229 3.837-5.591 4.214-8.448.785-5.951-4.604 3.353-11.164 5.614-17.406 5.998-7.748.477-11.866-1.408-16.567-7.58-3.866-5.077-10.79-9.228-15.39-9.228-2.783 0-4.686.805-7.273 3.076M69.5 171c-.34.55-.168 1 .382 1s1.278-.45 1.618-1c.34-.55.168-1-.382-1s-1.278.45-1.618 1m-15.3 3.2c-1.245 1.245-1.657 10.445-.593 13.218.759 1.979 5.263 2.084 6.009.14.304-.792.338-2.255.075-3.25-.415-1.568-.577-1.503-1.212.483-1.026 3.206-2.916 2.201-3.303-1.756-.636-6.508 1.736-10.623 3.334-5.785l.744 2.25.46-2.387c.675-3.498-2.992-5.435-5.514-2.913m7.8 6.741V189h3c1.65 0 3-.45 3-1s-.9-1-2-1c-1.793 0-2-.667-2-6.441 0-3.543-.45-6.719-1-7.059-.635-.392-1 2.323-1 7.441m7.667-7.274C68.583 174.75 68.893 189 70 189c.583 0 1-3.333 1-8 0-8.024-.099-8.568-1.333-7.333m3.333 7.25c0 8.589 1.922 11.634 2.104 3.333l.104-4.75 1.454 4.75c.8 2.613 1.878 4.75 2.396 4.75s.942-3.627.942-8.059c0-5.118-.365-7.833-1-7.441-.55.34-1.035 2.279-1.077 4.309l-.077 3.691-1.182-3.92c-2.123-7.034-3.664-5.631-3.664 3.337m9 .083c0 4.667.417 8 1 8s1-3.333 1-8-.417-8-1-8-1 3.333-1 8m5.201-7.145c-.913.579-1.211 2.882-1 7.735.288 6.653.398 6.921 2.963 7.218 1.966.227 2.835-.229 3.315-1.741.926-2.919-.584-5.017-1.611-2.238C89.36 188.904 88 187.088 88 181c0-6.151 1.344-7.869 2.932-3.75.775 2.01.944 2.062 1.58.487 1.285-3.182-2.292-5.797-5.311-3.882m8.746-.605c-1.317 6.214-2.37 15.75-1.739 15.75.47 0 1.114-.675 1.43-1.5.317-.825 1.203-1.5 1.969-1.5s1.393.675 1.393 1.5.62 1.5 1.379 1.5c1.083 0 1.204-.912.565-4.25a360.03 360.03 0 0 1-1.424-8c-.38-2.335-1.16-3.75-2.065-3.75-.8 0-1.479.113-1.508.25m10.221 8.5.168 7.75.582-6c.635-6.549 1.117-6.431 3.058.75.706 2.613 1.675 4.75 2.154 4.75.478 0 .794-3.488.702-7.75l-.168-7.75-.607 6-.607 6-1.274-4.5c-1.905-6.726-2.028-7-3.145-7-.634 0-.966 2.984-.863 7.75m10.449-5c-.803 4.081-1.619 13.028-1.002 11 .648-2.133 4.385-2.346 4.385-.25 0 .825.499 1.5 1.108 1.5.647 0 .879-.938.556-2.25-.304-1.238-.86-4.613-1.237-7.5-.748-5.736-2.895-7.145-3.81-2.5m6.591-2.069c1.366.36 1.776 1.884 2.051 7.634l.344 7.185.198-7.177c.163-5.891.512-7.258 1.949-7.634.963-.251-.05-.457-2.25-.457s-3.232.202-2.292.449m7.621 6.821c-.181 4.127.009 7.502.421 7.5.412-.001.75-3.377.75-7.502s-.189-7.5-.421-7.5c-.232 0-.569 3.376-.75 7.502m3.638-3.002c1.009 8.287 1.631 10.5 2.949 10.5.814 0 1.593-2.648 2.208-7.5.523-4.125.597-7.5.164-7.5-.434 0-.788 1.294-.788 2.875 0 4.276-1.129 9.125-2.125 9.125-.481 0-.882-2.137-.89-4.75-.009-2.613-.491-5.425-1.072-6.25-.771-1.096-.892-.153-.446 3.5m8.473-2.25c-.033 1.238-.146 4.613-.25 7.501-.105 2.888.148 5.25.56 5.25.412-.001.75-3.376.75-7.501s-.225-7.5-.5-7.5-.527 1.012-.56 2.25m3.06 5.25v7.627l3.25-.314 3.25-.313v-14l-3.25-.313-3.25-.314v7.627m10.543-5.25c-1.52 6.9-2.165 12.75-1.406 12.75.474 0 .863-.675.863-1.5 0-.833.889-1.5 2-1.5s2 .667 2 1.5c0 .825.354 1.5.788 1.5.433 0 .359-3.375-.164-7.5-.641-5.058-1.38-7.5-2.268-7.5-.725 0-1.541 1.012-1.813 2.25m7.288 5.262c.33 7.581.34 7.604 3 7.297 2.608-.302 2.669-.468 2.669-7.309v-7l-3-.297-3-.297.331 7.606m11.836-6.845c-1.348 1.348-.603 4.256 1.833 7.151 1.375 1.634 2.5 3.693 2.5 4.576 0 2.144-2.625 2.049-3.987-.144-.993-1.6-1.061-1.578-.791.25.198 1.342 1.197 2.104 3.037 2.316 2.435.281 2.741-.01 2.741-2.604 0-1.717-1.015-4.015-2.464-5.578-1.371-1.48-2.21-3.319-1.893-4.146.695-1.81 3.001-1.958 3.695-.238.301.747.536.545.583-.5.054-1.189-.669-1.75-2.254-1.75-1.284 0-2.634.3-3 .667M187 181.5c0 4.125.389 7.5.865 7.5s.822-1.463.769-3.25c-.066-2.247.362-3.25 1.385-3.25.94 0 1.596 1.188 1.794 3.25.173 1.787.69 3.25 1.151 3.25.715 0 .697-1.518-.087-7.5-.072-.55-.021-1.45.114-2s.193-2.012.127-3.25c-.095-1.807-.709-2.25-3.118-2.25h-3v7.5m12.993-.248-.493 7.753 3-.139c2.29-.106 2.477-.24.793-.566-1.997-.387-2.237-1.114-2.508-7.614l-.3-7.186-.492 7.752M148 181.5c0 5.111.321 6.5 1.5 6.5s1.5-1.389 1.5-6.5-.321-6.5-1.5-6.5-1.5 1.389-1.5 6.5m17 0c0 5.792.225 6.603 1.75 6.31 1.434-.276 1.75-1.417 1.75-6.31s-.316-6.034-1.75-6.31c-1.525-.293-1.75.518-1.75 6.31m23.931-6.333c-.903 4.368-.659 5.927.881 5.631 1.98-.382 2.338-4.915.438-5.548-.687-.229-1.281-.267-1.319-.083m-71.181 1.41c-.412.416-.75 2.481-.75 4.59 0 2.74.428 3.833 1.5 3.833 1.557 0 1.707-1.506.632-6.339-.348-1.562-.97-2.5-1.382-2.084m39.86.53c-.24.766-.69 2.856-.998 4.643-.469 2.713-.252 3.25 1.318 3.25 1.63 0 1.808-.565 1.337-4.25-.61-4.778-1.019-5.678-1.657-3.643m-60.868 2.803c-.416 1.875-.528 3.638-.249 3.916 1.043 1.043 1.638-.742 1.327-3.98l-.322-3.346-.756 3.41m66.963 15.84c-.731 3.807-.149 3.962 1.127.301.585-1.678.69-3.051.233-3.051-.458 0-1.07 1.238-1.36 2.75m-116.591-.117c-2.571 1.8-6.058 8.666-6.092 11.995-.012 1.17.725 2.745 1.639 3.5 1.512 1.25 1.54 1.18.315-.789-1.858-2.983.088-9.249 4.125-13.286 3.43-3.43 3.434-3.816.013-1.42m111.359-.677c.325.526 1.252.703 2.059.393 2.067-.793 1.824-1.349-.591-1.349-1.132 0-1.793.43-1.468.956m-101.389 4.409c-1.144 1.85-2.315 4.888-2.603 6.75-.445 2.88-.308 2.736.924-.972.796-2.396 2.459-5.434 3.695-6.75 1.237-1.316 1.757-2.393 1.156-2.393s-2.029 1.514-3.172 3.365m79.609-1.578c-1.833 2.026-4.717 8.499-4.646 10.431.026.705.901-.905 1.945-3.579 1.045-2.674 2.668-5.711 3.608-6.75.941-1.039 1.485-1.889 1.21-1.889-.275 0-1.228.804-2.117 1.787m64.554-.537c-2.093 2.623-4.244 7.744-4.18 9.95.046 1.591.455 1.06 1.327-1.721.693-2.211 2.064-5.249 3.048-6.75 1.8-2.747 1.661-3.804-.195-1.479m-87.212 1.684c-.569 1.064-1.035 2.864-1.035 4 0 1.136-.506 1.953-1.125 1.816s-1.26.324-1.425 1.025c-.165.701-.065.795.222.208.362-.739.954-.709 1.925.098 1.154.957 1.403.598 1.403-2.024 0-1.754.466-4.059 1.035-5.123.57-1.064.81-1.934.535-1.934s-.965.87-1.535 1.934M161.6 201.6c-.356.927-.422 1.911-.147 2.186.275.275.791-.259 1.147-1.186.356-.927.422-1.911.147-2.186-.275-.275-.791.259-1.147 1.186m-91.017 3.266c-.431.697-.513 1.537-.183 1.867.895.895 1.871-.421 1.387-1.871-.338-1.016-.574-1.016-1.204.004m17.96.065c-.317.512-.118 1.213.441 1.559.559.345 1.016-.074 1.016-.931 0-1.757-.6-2.015-1.457-.628m7.916.136c-.363.586-.389 1.336-.059 1.666.33.33.6.02.6-.689 0-1.041.293-1.046 1.523-.025 1.273 1.057 1.42.995.893-.378-.722-1.88-1.997-2.128-2.957-.574m24 0c-.363.586-.445 1.281-.183 1.543s.743-.218 1.069-1.067c.676-1.762.1-2.072-.886-.476m21 0c-1.026 1.66-.105 1.89 1.33.332.71-.769.849-1.399.309-1.399-.539 0-1.277.48-1.639 1.067m26.62.6c.053 1.233.256 1.387.621.47.458-1.151.691-1.151 1.497 0 .79 1.127.888 1.114.567-.074-.587-2.171-2.775-2.494-2.685-.396m8.921-.108c0 .857.45 1.281 1 .941.55-.34 1-1.041 1-1.559s-.45-.941-1-.941-1 .702-1 1.559m3.079.024c.048 1.165.285 1.402.604.605.289-.722.253-1.585-.079-1.917-.332-.332-.568.258-.525 1.312m9.464-.652c-.317.512-.118 1.213.441 1.559.559.345 1.016-.074 1.016-.931 0-1.757-.6-2.015-1.457-.628m24 0c-.317.512-.049 1.256.595 1.654.698.432.904.292.51-.345-.363-.588-.095-1.297.596-1.576.899-.362.917-.529.065-.585-.655-.043-1.45.34-1.766.852M63 206c0 .55.477 1 1.059 1s.781-.45.441-1-.816-1-1.059-1-.441.45-.441 1m11 0c0 .55.477 1 1.059 1s.781-.45.441-1-.816-1-1.059-1-.441.45-.441 1m7 0c0 .55.477 1 1.059 1s.781-.45.441-1-.816-1-1.059-1-.441.45-.441 1m79.571 1.571c-.367 1.466-.475 2.858-.24 3.094.236.235.73-.771 1.098-2.236.367-1.466.475-2.858.24-3.094-.236-.235-.73.771-1.098 2.236M182.5 206c.34.55.816 1 1.059 1s.441-.45.441-1-.477-1-1.059-1-.781.45-.441 1m23.5 0c0 .55.477 1 1.059 1s.781-.45.441-1-.816-1-1.059-1-.441.45-.441 1" fill="#1976D2" fill-rule="evenodd"/><path fill-opacity=".489" d="M151.807 97.29c-8.631 4.997-15.424 9.521-15.095 10.052.328.532.078.646-.557.253-.635-.392-1.191-1.474-1.234-2.404-.043-.93-.296-1.159-.561-.509-.639 1.569 1.871 6.277 4.809 9.02C151.351 125.077 172 116.459 172 100c0-4.04-2.019-10.282-3.648-11.276-.469-.286-7.914 3.568-16.545 8.566M120 112.336c0 3.252-.386 3.56-15.25 12.125-8.388 4.833-16.911 9.846-18.941 11.138-3.665 2.335-3.695 2.337-4.341.301-.358-1.128-.866-1.835-1.129-1.572-1.07 1.069 3.781 8.5 8.806 13.49 16.746 16.63 45.611 23.436 68.355 16.118l7-2.252-9-1.335c-19.396-2.878-28.604-8.78-34.085-21.849-1.398-3.334-1.578-6.122-1.079-16.75.329-7.013.388-12.75.131-12.75s-.467 1.501-.467 3.336m58.5 1.567c-6.615 2.905-9.029 11.208-4.887 16.804 4.532 6.124 12.147 6.686 17.537 1.296 6.282-6.281 2.222-17.608-6.65-18.553-2.2-.234-4.9-.03-6 .453m-37.5 11.3c-2.246 1.515-4.012 3.833-4.93 6.465-4.027 11.557 9.801 23.332 27.401 23.332 13.365 0 25.058-5.41 31.106-14.39 4.532-6.731 4.437-8.27-.327-5.287-4.776 2.991-12.716 5.683-16.678 5.655-4.795-.034-10.815-3.286-15.648-8.454-8.79-9.398-14.755-11.485-20.924-7.321m-71 45.856c0 .582.45.781 1 .441s1-.816 1-1.059-.45-.441-1-.441-1 .477-1 1.059m-15.795 10.12c.285 7.064.383 7.321 2.795 7.321 1.936 0 2.554-.564 2.74-2.5l.24-2.5-.989 2.334c-1.621 3.826-3.464 1.98-3.798-3.805-.36-6.233 1.125-8.602 3.464-5.529l1.523 2-.349-2c-.232-1.335-1.275-2.107-3.135-2.321l-2.786-.321.295 7.321M62 181.5v7.5l3.25-.1c3.003-.092 3.06-.153.75-.799-2.348-.658-2.5-1.107-2.5-7.402 0-3.687-.337-6.702-.75-6.701-.413.001-.75 3.377-.75 7.502m7 0c0 4.333.422 7.5 1 7.5.578 0 1-3.167 1-7.5s-.422-7.5-1-7.5c-.578 0-1 3.167-1 7.5m4.189.25c.169 6.941.227 7.15.55 2 .198-3.162.717-5.75 1.152-5.75.435 0 1.345 2.475 2.022 5.5.677 3.025 1.648 5.5 2.159 5.5.51 0 .857-3.488.771-7.75-.141-6.972-.217-7.248-.75-2.75-.641 5.406-1.504 5.156-2.614-.758-.41-2.189-1.278-3.742-2.09-3.742-1.082 0-1.347 1.713-1.2 7.75M82 181.5c0 4.333.422 7.5 1 7.5.578 0 1-3.167 1-7.5s-.422-7.5-1-7.5c-.578 0-1 3.167-1 7.5m4.415-6.138c-.288.749-.386 4.012-.219 7.25.286 5.533.455 5.888 2.804 5.888 1.936 0 2.554-.564 2.74-2.5.237-2.464.226-2.467-.718-.25-1.841 4.325-4.022 2.02-4.022-4.25 0-1.835.273-4.048.607-4.918.813-2.119 3.134-2.013 3.704.168.344 1.317.486 1.193.573-.5.091-1.771-.423-2.25-2.415-2.25-1.393 0-2.767.613-3.054 1.362m9.202 1.388c-.803 4.081-1.619 13.028-1.002 11 .672-2.212 3.966-2.286 4.802-.107 1.356 3.535 1.59.284.468-6.508-1.228-7.439-3.256-9.522-4.268-4.385m1.106.582c-1.29 3.27-.845 7.668.777 7.668 1.568 0 1.706-1.484.604-6.5-.547-2.489-.782-2.688-1.381-1.168m-53.769 23.754c-.614 1.147-.928 2.274-.697 2.504.23.23.932-.708 1.559-2.086 1.378-3.024.707-3.35-.862-.418" fill="#1976D2" fill-rule="evenodd"/></svg>